<svg xmlns="http://www.w3.org/2000/svg" width="9" height="11" viewBox="0 0 9 11" style="background:transparent;" shape-rendering="optimizeSpeed">
<rect x="2" y="0" width="1" height="1" fill="rgb(255,255,255)" stroke="none" vector-effect="non-scaling-stroke"/>
<rect x="7" y="0" width="1" height="1" fill="rgb(255,255,255)" stroke="none" vector-effect="non-scaling-stroke"/>
<rect x="2" y="1" width="1" height="1" fill="rgb(255,255,255)" stroke="none" vector-effect="non-scaling-stroke"/>
<rect x="3" y="1" width="1" height="1" fill="rgb(255,255,255)" stroke="none" vector-effect="non-scaling-stroke"/>
<rect x="4" y="1" width="1" height="1" fill="rgb(255,255,255)" stroke="none" vector-effect="non-scaling-stroke"/>
<rect x="5" y="1" width="1" height="1" fill="rgb(255,255,255)" stroke="none" vector-effect="non-scaling-stroke"/>
<rect x="6" y="1" width="1" height="1" fill="rgb(255,255,255)" stroke="none" vector-effect="non-scaling-stroke"/>
<rect x="7" y="1" width="1" height="1" fill="rgb(255,255,255)" stroke="none" vector-effect="non-scaling-stroke"/>
<rect x="1" y="2" width="1" height="1" fill="rgb(255,255,255)" stroke="none" vector-effect="non-scaling-stroke"/>
<rect x="8" y="2" width="1" height="1" fill="rgb(255,255,255)" stroke="none" vector-effect="non-scaling-stroke"/>
<rect x="1" y="3" width="1" height="1" fill="rgb(255,255,255)" stroke="none" vector-effect="non-scaling-stroke"/>
<rect x="8" y="3" width="1" height="1" fill="rgb(255,255,255)" stroke="none" vector-effect="non-scaling-stroke"/>
<rect x="1" y="4" width="1" height="1" fill="rgb(255,255,255)" stroke="none" vector-effect="non-scaling-stroke"/>
<rect x="8" y="4" width="1" height="1" fill="rgb(255,255,255)" stroke="none" vector-effect="non-scaling-stroke"/>
<rect x="1" y="5" width="1" height="1" fill="rgb(255,255,255)" stroke="none" vector-effect="non-scaling-stroke"/>
<rect x="8" y="5" width="1" height="1" fill="rgb(255,255,255)" stroke="none" vector-effect="non-scaling-stroke"/>
<rect x="2" y="6" width="1" height="1" fill="rgb(255,255,255)" stroke="none" vector-effect="non-scaling-stroke"/>
<rect x="7" y="6" width="1" height="1" fill="rgb(255,255,255)" stroke="none" vector-effect="non-scaling-stroke"/>
<rect x="0" y="7" width="1" height="1" fill="rgb(255,255,255)" stroke="none" vector-effect="non-scaling-stroke"/>
<rect x="3" y="7" width="1" height="1" fill="rgb(255,255,255)" stroke="none" vector-effect="non-scaling-stroke"/>
<rect x="6" y="7" width="1" height="1" fill="rgb(255,255,255)" stroke="none" vector-effect="non-scaling-stroke"/>
<rect x="1" y="8" width="1" height="1" fill="rgb(255,255,255)" stroke="none" vector-effect="non-scaling-stroke"/>
<rect x="2" y="8" width="1" height="1" fill="rgb(255,255,255)" stroke="none" vector-effect="non-scaling-stroke"/>
<rect x="3" y="8" width="1" height="1" fill="rgb(255,255,255)" stroke="none" vector-effect="non-scaling-stroke"/>
<rect x="6" y="8" width="1" height="1" fill="rgb(255,255,255)" stroke="none" vector-effect="non-scaling-stroke"/>
<rect x="3" y="9" width="1" height="1" fill="rgb(255,255,255)" stroke="none" vector-effect="non-scaling-stroke"/>
<rect x="6" y="9" width="1" height="1" fill="rgb(255,255,255)" stroke="none" vector-effect="non-scaling-stroke"/>
<rect x="3" y="10" width="1" height="1" fill="rgb(255,255,255)" stroke="none" vector-effect="non-scaling-stroke"/>
<rect x="4" y="10" width="1" height="1" fill="rgb(255,255,255)" stroke="none" vector-effect="non-scaling-stroke"/>
<rect x="5" y="10" width="1" height="1" fill="rgb(255,255,255)" stroke="none" vector-effect="non-scaling-stroke"/>
<rect x="6" y="10" width="1" height="1" fill="rgb(255,255,255)" stroke="none" vector-effect="non-scaling-stroke"/>
</svg>