<?xml version="1.0" standalone="no"?>
<!DOCTYPE svg PUBLIC "-//W3C//DTD SVG 20010904//EN"
 "http://www.w3.org/TR/2001/REC-SVG-20010904/DTD/svg10.dtd">
<svg version="1.0" xmlns="http://www.w3.org/2000/svg"
 width="512.000000pt" height="512.000000pt" viewBox="0 0 512.000000 512.000000"
 preserveAspectRatio="xMidYMid meet">

<g transform="translate(0.000000,512.000000) scale(0.100000,-0.100000)"
fill="#000000" stroke="none">
<path d="M1250 3540 l0 -160 -160 0 -160 0 0 -165 0 -165 -165 0 -165 0 0
-490 0 -490 165 0 165 0 0 -165 0 -165 160 0 160 0 0 -160 0 -160 490 0 490 0
0 160 0 160 -490 0 -490 0 0 165 0 165 -160 0 -160 0 0 490 0 490 160 0 160 0
0 165 0 165 490 0 490 0 0 160 0 160 -490 0 -490 0 0 -160z"/>
<path d="M2890 3540 l0 -160 490 0 490 0 0 -165 0 -165 160 0 160 0 0 -490 0
-490 -160 0 -160 0 0 -165 0 -165 -490 0 -490 0 0 -160 0 -160 490 0 490 0 0
160 0 160 160 0 160 0 0 165 0 165 165 0 165 0 0 490 0 490 -165 0 -165 0 0
165 0 165 -160 0 -160 0 0 160 0 160 -490 0 -490 0 0 -160z"/>
<path d="M1580 2560 l0 -160 980 0 980 0 0 160 0 160 -980 0 -980 0 0 -160z"/>
</g>
</svg>
